:SAMPLES-PER-SECOND 30
:FULLY-SPECIFIED
:DEGREES
111
root  -27.9865 38.7387 -21.368 1.55438 -6.11771 4.61498
RightUpLeg  9.33688 -7.44388 -17.9738
RightLeg  39.0797 -8.89391 -7.75067
RightFoot  7.92847 -2.61096 15.5031
RightToes  -5.8209e-011 0 -3.6325e-017
Spine  4.57962 2.61526 -2.26888
Spine1  7.5449 3.99598 -5.88901
HEad  -13.4564 3.48752 -5.11157
LeftShoulder1  8.30499 -12.1378 -46.3103
LeftArm  -9.02314 37.361 -25.5376
LeftForeArm  21.456 -2.29004 -4.26245
LeftHand  -0.244104 0.0205437 5.32207
RightShoulder  6.78202 10.2627 42.9286
RightArm  9.02498 -6.69154 31.1719
RightForeArm  -6.77174 27.9909 6.36963
RightHand  -1.51375 3.75417 -19.3096
LeftUpLeg  -25.9796 8.00117 -11.5058
LeftLeg  27.1111 5.18019 3.22178
LeftFoot  -5.07282 -0.315679 6.28669
LeftToes  5.72949e-011 -2.03295e-011 6.54899e-012
112
root  -28.034 38.9602 -20.0104 1.05334 -6.04251 4.83743
RightUpLeg  1.80298 -3.39013 -16.4061
RightLeg  50.0771 -3.61549 -4.91899
RightFoot  11.5771 -2.01498 10.1984
RightToes  -5.8209e-011 0 -3.6325e-017
Spine  4.91577 2.40824 -3.69394
Spine1  7.68914 3.37822 -4.88301
HEad  -13.9228 3.82966 -5.73627
LeftShoulder1  8.3721 -12.1321 -46.7121
LeftArm  -9.21738 35.5503 -26.9664
LeftForeArm  24.2234 -3.42483 -4.50946
LeftHand  -0.244104 0.0205437 5.32207
RightShoulder  6.81088 10.1968 43.3417
RightArm  12.8722 -10.3952 31.82
RightForeArm  -9.48383 23.5881 5.69592
RightHand  -1.60392 4.15421 -19.6033
LeftUpLeg  -22.6762 7.98542 -11.4063
LeftLeg  26.6341 5.25775 3.20903
LeftFoot  -7.32776 -0.150078 5.56133
LeftToes  5.72949e-011 -2.03295e-011 6.54899e-012
113
root  -28.0726 39.3061 -18.6575 0.573393 -5.79732 4.52597
RightUpLeg  -5.12344 -1.17952 -14.8164
RightLeg  57.6447 -0.154198 -0.826077
RightFoot  10.2924 -1.70052 9.27673
RightToes  -5.8209e-011 0 -3.6325e-017
Spine  5.2516 1.97652 -4.35805
Spine1  7.93686 2.58751 -3.71717
HEad  -14.5975 4.3851 -6.22943
LeftShoulder1  8.46463 -12.0956 -47.3509
LeftArm  -8.71009 32.6836 -27.8174
LeftForeArm  26.0325 -5.60582 -5.13466
LeftHand  -0.244104 0.0205437 5.32207
RightShoulder  6.84139 10.181 43.5999
RightArm  13.5603 -13.6559 32.1665
RightForeArm  -5.56897 19.0331 6.22698
RightHand  -1.44792 3.62851 -18.7273
LeftUpLeg  -18.7756 7.82557 -10.807
LeftLeg  24.7647 5.40325 3.07152
LeftFoot  -8.38286 -0.0828566 5.17406
LeftToes  5.72949e-011 -2.03295e-011 6.54899e-012
114
root  -28.103 39.6897 -17.3555 -0.0554408 -5.01233 3.84068
RightUpLeg  -11.0338 -0.895807 -13.2035
RightLeg  61.1677 -0.133491 -0.826047
RightFoot  7.73484 -1.71144 10.4776
RightToes  -5.8209e-011 0 -3.6325e-017
Spine  6.18906 1.37521 -4.32733
Spine1  7.78924 1.66113 -2.64502
HEad  -14.9411 4.80744 -6.1444
LeftShoulder1  8.64533 -12.231 -47.9559
LeftArm  -7.67451 28.7835 -28.2301
LeftForeArm  27.0033 -7.88906 -5.8501
LeftHand  -0.244104 0.0205437 5.32207
RightShoulder  6.88473 10.2175 43.7684
RightArm  8.90889 -16.9083 32.1268
RightForeArm  4.77918 14.4214 7.67618
RightHand  -1.2271 2.90065 -17.3042
LeftUpLeg  -14.4337 7.68804 -9.82661
LeftLeg  22.2311 5.12944 2.61453
LeftFoot  -9.28616 -0.0360926 5.12934
LeftToes  5.72949e-011 -2.03295e-011 6.54899e-012
115
root  -28.126 40.0235 -16.0881 -0.804618 -4.0233 2.96831
RightUpLeg  -15.988 -1.65791 -11.3639
RightLeg  60.9714 -2.11136 -4.58796
RightFoot  5.66337 -1.51507 10.3431
RightToes  -5.8209e-011 0 -3.6325e-017
Spine  7.53158 0.736807 -3.81149
Spine1  7.3551 0.761854 -1.75356
HEad  -14.8302 5.11212 -5.77063
LeftShoulder1  8.81186 -12.4443 -48.2308
LeftArm  -6.3619 24.3084 -28.6382
LeftForeArm  26.9796 -10.5177 -6.14004
LeftHand  -0.244104 0.0205437 5.32207
RightShoulder  6.89367 10.2668 43.6628
RightArm  3.74324 -20.3114 32.0317
RightForeArm  13.2009 10.6702 8.21368
RightHand  -1.11794 2.66639 -16.2445
LeftUpLeg  -9.81461 7.39258 -8.37093
LeftLeg  19.4079 4.77311 1.66277
LeftFoot  -10.0672 0.00364232 5.11904
LeftToes  5.72949e-011 -2.03295e-011 6.54899e-012
116
root  -28.1274 40.3032 -14.806 -1.43699 -3.01004 1.92692
RightUpLeg  -20.0007 -2.77222 -9.21694
RightLeg  57.1884 -4.46046 -7.84225
RightFoot  3.92348 -1.12332 8.57385
RightToes  -5.8209e-011 0 -3.6325e-017
Spine  8.6314 -0.0216493 -2.92548
Spine1  7.01989 -0.18828 -0.81602
HEad  -14.5547 5.47201 -5.58841
LeftShoulder1  8.8918 -12.5631 -48.3094
LeftArm  -4.23224 19.5692 -28.9211
LeftForeArm  25.3714 -13.6426 -5.82393
LeftHand  -0.244104 0.0205437 5.32207
RightShoulder  6.82292 10.2578 43.2191
RightArm  0.538433 -23.5934 31.8628
RightForeArm  16.071 8.48156 8.06722
RightHand  -1.07815 2.59294 -15.8147
LeftUpLeg  -5.23975 6.00965 -6.50454
LeftLeg  16.3808 5.26144 0.353629
LeftFoot  -10.475 0.0245467 5.09117
LeftToes  5.72949e-011 -2.03295e-011 6.54899e-012
